<!-- <svg width="24" height="24" viewBox="0 0 24 24" fill="none" xmlns="http://www.w3.org/2000/svg">
<path opacity="0.4" d="M2.28099 19.6575C2.36966 20.5161 2.93261 21.1957 3.77688 21.3755C5.1095 21.6592 7.6216 22 12 22C16.3784 22 18.8905 21.6592 20.2232 21.3755C21.0674 21.1957 21.6303 20.5161 21.719 19.6575C21.8505 18.3844 22 16.0469 22 12C22 7.95305 21.8505 5.6156 21.719 4.34251C21.6303 3.48389 21.0674 2.80424 20.2231 2.62451C18.8905 2.34081 16.3784 2 12 2C7.6216 2 5.1095 2.34081 3.77688 2.62451C2.93261 2.80424 2.36966 3.48389 2.28099 4.34251C2.14952 5.6156 2 7.95305 2 12C2 16.0469 2.14952 18.3844 2.28099 19.6575Z" fill="#637381"/>
<path d="M13.9382 13.8559C15.263 13.1583 16.1663 11.7679 16.1663 10.1666C16.1663 7.8655 14.3008 6 11.9996 6C9.69841 6 7.83291 7.8655 7.83291 10.1666C7.83291 11.768 8.73626 13.1584 10.0612 13.856C8.28691 14.532 6.93216 16.1092 6.51251 18.0529C6.45446 18.3219 6.60246 18.5981 6.87341 18.6471C7.84581 18.8231 9.45616 19 12.0006 19C14.545 19 16.1554 18.8231 17.1278 18.6471C17.3977 18.5983 17.5454 18.3231 17.4876 18.0551C17.0685 16.1103 15.7133 14.5321 13.9382 13.8559Z" fill="#637381"/>
</svg> -->
<svg version="1.1" xmlns="http://www.w3.org/2000/svg" xmlns:xlink="http://www.w3.org/1999/xlink" x="0px" y="0px" viewBox="0 0 1000 1000" enable-background="new 0 0 1000 1000" xml:space="preserve">
<metadata> Svg Vector Icons : http://www.onlinewebfonts.com/icon </metadata>
<g><g transform="translate(0.000000,511.000000) scale(0.100000,-0.100000)"><path d="M8860.5,4373.5c-441.8-87.2-757.6-538.7-684-980.5c46.5-277.1,226.7-523.2,474.7-645.3l129.8-63.9V1370V54.3h-54.2c-124,0-255.8-129.8-255.8-251.9c0-75.6,63.9-178.3,137.6-217c50.4-27.1,108.5-34.9,269.4-34.9c236.4,0,313.9,29.1,372,137.6c32.9,62,34.9,149.2,34.9,1530.8v1464.9l127.9,63.9c335.2,164.7,536.8,546.4,476.7,904.9C9808.1,4142.9,9343,4468.5,8860.5,4373.5z M9242.2,3829c228.7-153.1,203.5-515.4-44.6-635.6c-118.2-58.1-265.5-48.4-374,25.2c-224.8,147.3-203.5,509.6,38.8,631.7C8976.8,3908.5,9133.7,3898.8,9242.2,3829z"/><path d="M237.6,1879.6c-36.8-19.4-83.3-65.9-102.7-102.7c-32.9-62-34.9-162.8-34.9-1974.6s1.9-1912.5,34.9-1974.5c19.4-36.8,65.9-83.3,102.7-102.7c62-32.9,220.9-34.9,3834.8-34.9c3613.9,0,3772.8,2,3834.8,34.9c36.8,19.4,83.3,65.9,102.7,102.7c32.9,62,34.9,162.8,34.9,1974.5s-1.9,1912.6-34.9,1974.6c-19.4,36.8-65.9,83.3-102.7,102.7c-62,32.9-220.9,34.9-3834.8,34.9C458.5,1914.5,299.6,1912.6,237.6,1879.6z M7540.9-197.6v-1608.3H4072.4H603.8v1608.3v1608.3h3468.5h3468.6V-197.6z"/><path d="M2717.9,949.5c-36.8-19.4-83.3-65.9-102.7-102.7c-32.9-60.1-34.9-133.7-34.9-1044.5c0-910.7,1.9-984.4,34.9-1044.4c38.8-73.6,141.5-137.6,217-137.6s178.3,63.9,217,137.6c32.9,60.1,34.9,133.7,34.9,1044.4c0,910.7-1.9,984.4-34.9,1044.5c-38.8,73.6-141.5,137.6-217,137.6C2805.1,984.4,2752.8,968.9,2717.9,949.5z"/><path d="M5198.2,949.5c-36.8-19.4-83.3-65.9-102.7-102.7c-32.9-60.1-34.9-133.7-34.9-1044.5c0-910.7,1.9-984.4,34.9-1044.4c38.8-73.6,141.4-137.6,217-137.6c75.6,0,178.3,63.9,217,137.6c32.9,60.1,34.9,133.7,34.9,1044.4c0,910.7-1.9,984.4-34.9,1044.5c-38.8,73.6-141.5,137.6-217,137.6C5285.4,984.4,5233.1,968.9,5198.2,949.5z"/><path d="M1167.7,639.5c-73.6-38.8-137.6-141.5-137.6-217c0-75.6,63.9-178.3,137.6-217c48.4-25.2,108.5-34.9,234.5-34.9c104.6,0,170.5-7.7,170.5-19.4c0-11.6-52.3-232.5-118.2-490.2c-127.9-513.5-129.8-556.1-36.8-651.1c102.7-100.8,246.1-102.7,346.9-2c48.4,50.4,71.7,127.9,222.8,724.7c91.1,368.2,166.7,686,166.7,705.3c0,62-69.8,164.7-137.6,201.5c-56.2,31-114.3,34.9-424.4,34.9S1223.9,670.5,1167.7,639.5z"/><path d="M3648,639.5c-73.6-38.8-137.6-141.5-137.6-217c0-75.6,63.9-178.3,137.6-217c48.4-25.2,108.5-34.9,234.5-34.9c104.6,0,170.5-7.7,170.5-19.4c0-11.6-52.3-232.5-118.2-490.2C3806.9-852.6,3805-895.2,3898-990.1c102.7-100.8,246.1-102.7,346.9-2c48.4,50.4,71.7,127.9,222.8,724.7c91.1,368.2,166.6,686,166.6,705.3c0,62-69.8,164.7-137.6,201.5c-56.2,31-114.3,34.9-424.4,34.9S3704.2,670.5,3648,639.5z"/><path d="M6128.3,639.5c-73.6-38.8-137.6-141.5-137.6-217c0-75.6,63.9-178.3,137.6-217c48.4-25.2,108.5-34.9,234.5-34.9c104.6,0,170.5-7.7,170.5-19.4c0-11.6-52.3-232.5-118.2-490.2c-127.9-513.5-129.8-556.1-36.8-651.1c102.7-100.8,246.1-102.7,346.9-2c48.4,50.4,71.7,127.9,222.8,724.7c91.1,368.2,166.6,686,166.6,705.3c0,62-69.7,164.7-137.6,201.5c-56.2,31-114.3,34.9-424.4,34.9C6242.6,674.4,6184.5,670.5,6128.3,639.5z"/><path d="M1466.1-2705c-195.7-85.3-242.2-344.9-89.1-498c126-126,304.2-126,430.2,0C2047.4-2962.8,1778.1-2569.4,1466.1-2705z"/><path d="M3946.4-2705c-195.7-85.3-242.2-344.9-89.1-498c126-126,304.2-126,430.2,0C4527.7-2962.8,4258.4-2569.4,3946.4-2705z"/><path d="M6426.7-2705c-195.7-85.3-242.2-344.9-89.1-498c125.9-126,304.2-126,430.2,0C7008-2962.8,6738.7-2569.4,6426.7-2705z"/><path d="M237.6-3701c-73.6-38.8-137.6-141.4-137.6-217c0-75.6,63.9-178.3,137.6-217c62-32.9,220.9-34.9,3834.8-34.9c3613.9,0,3772.8,1.9,3834.8,34.9c73.6,38.8,137.6,141.4,137.6,217c0,75.6-63.9,178.3-137.6,217c-62,32.9-220.9,34.9-3834.8,34.9C458.5-3666.2,299.6-3668.1,237.6-3701z"/></g></g>
</svg>

